<?xml version="1.0" encoding="UTF-8" standalone="no"?>
<svg
   xmlns:dc="http://purl.org/dc/elements/1.1/"
   xmlns:cc="http://creativecommons.org/ns#"
   xmlns:rdf="http://www.w3.org/1999/02/22-rdf-syntax-ns#"
   xmlns:svg="http://www.w3.org/2000/svg"
   xmlns="http://www.w3.org/2000/svg"
   viewBox="0 0 387.52994 215.56331"
   height="161.67249pt"
   width="290.64746pt"
   xml:space="preserve"
   id="svg2"
   version="1.1"><metadata
     id="metadata8"><rdf:RDF><cc:Work
         rdf:about=""><dc:format>image/svg+xml</dc:format><dc:type
           rdf:resource="http://purl.org/dc/dcmitype/StillImage" /><dc:title></dc:title></cc:Work></rdf:RDF></metadata><defs
     id="defs6" /><g
     transform="matrix(1.3333333,0,0,-1.3333333,0.40314004,214.40237)"
     id="g10"><path
       d="m 111.243,143.199 h 37.593 c 1.149,0 2.089,-0.94 2.089,-2.088 v -37.593 c 0,-1.149 -0.94,-2.089 -2.089,-2.089 h -37.593 c -1.148,0 -2.088,0.94 -2.088,2.089 v 37.593 c 0,1.148 0.94,2.088 2.088,2.088"
       style="fill:#f36716;fill-opacity:1;fill-rule:evenodd;stroke:#000006;stroke-width:1;stroke-miterlimit:4;stroke-dasharray:none;stroke-opacity:1"
       id="path14" /><path
       d="m 111.243,92.7992 h 37.593 c 1.149,0 2.089,-0.9398 2.089,-2.0887 V 53.118 c 0,-1.1489 -0.94,-2.0887 -2.089,-2.0887 h -37.593 c -1.148,0 -2.088,0.9398 -2.088,2.0887 v 37.5925 c 0,1.1489 0.94,2.0887 2.088,2.0887"
       style="fill:#f36716;fill-opacity:1;fill-rule:evenodd;stroke:#000006;stroke-width:1;stroke-miterlimit:4;stroke-dasharray:none;stroke-opacity:1"
       id="path18" /><path
       d="m 111.243,42.3992 h 37.593 c 1.149,0 2.089,-0.9398 2.089,-2.0887 V 2.71797 c 0,-1.14922 -0.94,-2.088673 -2.089,-2.088673 h -37.593 c -1.148,0 -2.088,0.939453 -2.088,2.088673 V 40.3105 c 0,1.1489 0.94,2.0887 2.088,2.0887"
       style="fill:#f36716;fill-opacity:1;fill-rule:evenodd;stroke:#000006;stroke-width:1;stroke-miterlimit:4;stroke-dasharray:none;stroke-opacity:1"
       id="path22" /><path
       d="m 233.643,92.7992 h 37.593 c 1.149,0 2.089,-0.9398 2.089,-2.0887 V 53.118 c 0,-1.1489 -0.94,-2.0887 -2.089,-2.0887 h -37.593 c -1.148,0 -2.088,0.9398 -2.088,2.0887 v 37.5925 c 0,1.1489 0.94,2.0887 2.088,2.0887"
       style="fill:#f36716;fill-opacity:1;fill-rule:evenodd;stroke:#000006;stroke-width:1;stroke-miterlimit:4;stroke-dasharray:none;stroke-opacity:1"
       id="path26" /><path
       d="m 106.909,124.56 c 1.24,0 2.246,-1.005 2.246,-2.246 0,-1.24 -1.006,-2.246 -2.246,-2.246 -1.241,0 -2.246,1.006 -2.246,2.246 0,1.241 1.005,2.246 2.246,2.246"
       style="fill:#b6242a;fill-opacity:1;fill-rule:evenodd;stroke:#000000;stroke-width:1;stroke-miterlimit:4;stroke-dasharray:none;stroke-opacity:1"
       id="path30" /><path
       d="m 106.909,84.6023 c 1.24,0 2.246,-1.0054 2.246,-2.246 0,-1.2403 -1.006,-2.2461 -2.246,-2.2461 -1.241,0 -2.246,1.0058 -2.246,2.2461 0,1.2406 1.005,2.246 2.246,2.246"
       style="fill:#b6242a;fill-opacity:1;fill-rule:evenodd;stroke:#000000;stroke-width:1;stroke-miterlimit:4;stroke-dasharray:none;stroke-opacity:1"
       id="path34" /><path
       d="m 106.909,74.1602 c 1.24,0 2.246,-1.0055 2.246,-2.2461 0,-1.2407 -1.006,-2.2461 -2.246,-2.2461 -1.241,0 -2.246,1.0054 -2.246,2.2461 0,1.2406 1.005,2.2461 2.246,2.2461"
       style="fill:#b6242a;fill-opacity:1;fill-rule:evenodd;stroke:#000000;stroke-width:1;stroke-miterlimit:4;stroke-dasharray:none;stroke-opacity:1"
       id="path38" /><path
       d="m 106.909,34.2027 c 1.24,0 2.246,-1.0058 2.246,-2.2464 0,-1.2403 -1.006,-2.2461 -2.246,-2.2461 -1.241,0 -2.246,1.0058 -2.246,2.2461 0,1.2406 1.005,2.2464 2.246,2.2464"
       style="fill:#b6242a;fill-opacity:1;fill-rule:evenodd;stroke:#000000;stroke-width:1;stroke-miterlimit:4;stroke-dasharray:none;stroke-opacity:1"
       id="path42" /><path
       d="m 106.909,23.7602 c 1.24,0 2.246,-1.0055 2.246,-2.2461 0,-1.2403 -1.006,-2.2461 -2.246,-2.2461 -1.241,0 -2.246,1.0058 -2.246,2.2461 0,1.2406 1.005,2.2461 2.246,2.2461"
       style="fill:#b6242a;fill-opacity:1;fill-rule:evenodd;stroke:#000000;stroke-width:1;stroke-miterlimit:4;stroke-dasharray:none;stroke-opacity:1"
       id="path46" /><path
       d="m 106.909,13.318 c 1.24,0 2.246,-1.0059 2.246,-2.2461 0,-1.24065 -1.006,-2.24612 -2.246,-2.24612 -1.241,0 -2.246,1.00547 -2.246,2.24612 0,1.2402 1.005,2.2461 2.246,2.2461"
       style="fill:#b6242a;fill-opacity:1;fill-rule:evenodd;stroke:#000000;stroke-width:1;stroke-miterlimit:4;stroke-dasharray:none;stroke-opacity:1"
       id="path50" /><path
       d="M 104.663,11.0719 H 51.3852 V 146.451"
       style="fill:none;stroke:#000000;stroke-width:1;stroke-linecap:round;stroke-linejoin:round;stroke-miterlimit:22.92560005;stroke-dasharray:none;stroke-opacity:1"
       id="path54" /><path
       d="M 104.663,21.5141 H 36.1656 V 146.451"
       style="fill:none;stroke:#000000;stroke-width:1;stroke-linecap:round;stroke-linejoin:round;stroke-miterlimit:22.92560005;stroke-dasharray:none;stroke-opacity:1"
       id="path56" /><path
       d="M 104.663,31.9563 H 5.72734 V 146.451"
       style="fill:none;stroke:#000000;stroke-width:1;stroke-linecap:round;stroke-linejoin:round;stroke-miterlimit:22.92560005;stroke-dasharray:none;stroke-opacity:1"
       id="path58" /><path
       d="M 109.155,61.4719 H 51.3852"
       style="fill:none;stroke:#000000;stroke-width:1;stroke-linecap:round;stroke-linejoin:round;stroke-miterlimit:22.92560005;stroke-dasharray:none;stroke-opacity:1"
       id="path60" /><path
       d="M 104.663,71.9141 H 36.1656"
       style="fill:none;stroke:#000000;stroke-width:1;stroke-linecap:round;stroke-linejoin:round;stroke-miterlimit:22.92560005;stroke-dasharray:none;stroke-opacity:1"
       id="path62" /><path
       d="M 104.663,82.3563 H 20.9465 v 64.0947"
       style="fill:none;stroke:#000000;stroke-width:1;stroke-linecap:round;stroke-linejoin:round;stroke-miterlimit:22.92560005;stroke-dasharray:none;stroke-opacity:1"
       id="path64" /><path
       d="M 109.155,132.756 H 5.72734"
       style="fill:none;stroke:#000000;stroke-width:1;stroke-linecap:round;stroke-linejoin:round;stroke-miterlimit:22.92560005;stroke-dasharray:none;stroke-opacity:1"
       id="path66" /><path
       d="M 104.663,122.314 H 20.9465"
       style="fill:none;stroke:#000000;stroke-width:1;stroke-linecap:round;stroke-linejoin:round;stroke-miterlimit:22.92560005;stroke-dasharray:none;stroke-opacity:1"
       id="path68" /><path
       d="M 109.155,111.872 H 36.1656"
       style="fill:none;stroke:#000000;stroke-width:1;stroke-linecap:round;stroke-linejoin:round;stroke-miterlimit:22.92560005;stroke-dasharray:none;stroke-opacity:1"
       id="path70" /><text
       y="-151.052"
       x="0.236719"
       id="text76"
       style="font-variant:normal;font-weight:normal;font-size:15.99960041px;font-family:ArialMT;-inkscape-font-specification:ArialMT;writing-mode:lr-tb;fill:#000000;fill-opacity:1;fill-rule:nonzero;stroke:none"
       transform="scale(1,-1)"><tspan
         style="fill:#000000;fill-opacity:1"
         id="tspan74"
         y="-151.052"
         x="0.236719">x</tspan></text>
<text
       y="-147.85201"
       x="8.2367191"
       id="text80"
       style="font-variant:normal;font-weight:normal;font-size:7.99981022px;font-family:ArialMT;-inkscape-font-specification:ArialMT;writing-mode:lr-tb;fill:#000000;fill-opacity:1;fill-rule:nonzero;stroke:none"
       transform="scale(1,-1)"><tspan
         style="fill:#000000;fill-opacity:1"
         id="tspan78"
         y="-147.85201"
         x="8.2367191">1</tspan></text>
<text
       y="-151.052"
       x="14.933599"
       id="text84"
       style="font-variant:normal;font-weight:normal;font-size:15.99960041px;font-family:ArialMT;-inkscape-font-specification:ArialMT;writing-mode:lr-tb;fill:#000000;fill-opacity:1;fill-rule:nonzero;stroke:none"
       transform="scale(1,-1)"><tspan
         style="fill:#000000;fill-opacity:1"
         id="tspan82"
         y="-151.052"
         x="14.933599">x</tspan></text>
<text
       y="-147.85201"
       x="22.933599"
       id="text88"
       style="font-variant:normal;font-weight:normal;font-size:7.99981022px;font-family:ArialMT;-inkscape-font-specification:ArialMT;writing-mode:lr-tb;fill:#000000;fill-opacity:1;fill-rule:nonzero;stroke:none"
       transform="scale(1,-1)"><tspan
         style="fill:#000000;fill-opacity:1"
         id="tspan86"
         y="-147.85201"
         x="22.933599">2</tspan></text>
<text
       y="-151.052"
       x="30.123829"
       id="text92"
       style="font-variant:normal;font-weight:normal;font-size:15.99960041px;font-family:ArialMT;-inkscape-font-specification:ArialMT;writing-mode:lr-tb;fill:#000000;fill-opacity:1;fill-rule:nonzero;stroke:none"
       transform="scale(1,-1)"><tspan
         style="fill:#000000;fill-opacity:1"
         id="tspan90"
         y="-151.052"
         x="30.123829">x</tspan></text>
<text
       y="-147.85201"
       x="38.123829"
       id="text96"
       style="font-variant:normal;font-weight:normal;font-size:7.99981022px;font-family:ArialMT;-inkscape-font-specification:ArialMT;writing-mode:lr-tb;fill:#000000;fill-opacity:1;fill-rule:nonzero;stroke:none"
       transform="scale(1,-1)"><tspan
         style="fill:#000000;fill-opacity:1"
         id="tspan94"
         y="-147.85201"
         x="38.123829">3</tspan></text>
<text
       y="-151.052"
       x="45.35508"
       id="text100"
       style="font-variant:normal;font-weight:normal;font-size:15.99960041px;font-family:ArialMT;-inkscape-font-specification:ArialMT;writing-mode:lr-tb;fill:#000000;fill-opacity:1;fill-rule:nonzero;stroke:none"
       transform="scale(1,-1)"><tspan
         style="fill:#000000;fill-opacity:1"
         id="tspan98"
         y="-151.052"
         x="45.35508">x</tspan></text>
<text
       y="-147.85201"
       x="53.35508"
       id="text104"
       style="font-variant:normal;font-weight:normal;font-size:7.99981022px;font-family:ArialMT;-inkscape-font-specification:ArialMT;writing-mode:lr-tb;fill:#000000;fill-opacity:1;fill-rule:nonzero;stroke:none"
       transform="scale(1,-1)"><tspan
         style="fill:#000000;fill-opacity:1"
         id="tspan102"
         y="-147.85201"
         x="53.35508">4</tspan></text>
<path
       d="m 150.925,122.314 h 40.314 V 82.3563 h 40.316"
       style="fill:none;stroke:#000000;stroke-width:1;stroke-linecap:round;stroke-linejoin:round;stroke-miterlimit:22.92560005;stroke-dasharray:none;stroke-opacity:1"
       id="path106" /><path
       d="m 150.925,21.5141 h 40.314 v 39.9578 h 40.316"
       style="fill:none;stroke:#000000;stroke-width:1;stroke-linecap:round;stroke-linejoin:round;stroke-miterlimit:22.92560005;stroke-dasharray:none;stroke-opacity:1"
       id="path108" /><path
       d="m 231.555,71.9141 h -80.63"
       style="fill:none;stroke:#000000;stroke-width:1;stroke-linecap:round;stroke-linejoin:round;stroke-miterlimit:22.92560005;stroke-dasharray:none;stroke-opacity:1"
       id="path110" /><path
       d="m 273.325,71.9141 h 15.513"
       style="fill:none;stroke:#000000;stroke-width:1;stroke-linecap:round;stroke-linejoin:round;stroke-miterlimit:22.92560005;stroke-dasharray:none;stroke-opacity:1"
       id="path112" /><path
       id="path5010"
       transform="matrix(0.75000002,0,0,-0.75000002,0,160)"
       d="m 183.75195,40.396484 -4.64843,0.9375 v 2.396485 l 4.67382,-0.9375 v 14.830078 h -2.67968 v 2.214844 h 9.58007 v -2.214844 h -4.29687 V 40.396484 Z"
       style="font-variant:normal;font-weight:normal;font-size:19.99979973px;font-family:ArialUnicodeMS;-inkscape-font-specification:ArialUnicodeMS;writing-mode:lr-tb;fill:#231f20;fill-opacity:1;fill-rule:nonzero;stroke:none;stroke-width:1.33333325" /><path
       id="path5006"
       transform="matrix(0.75000002,0,0,-0.75000002,0,160)"
       d="m 179.52148,59.837891 v -2.214844 h -16.0957 v 2.214844 z"
       style="font-variant:normal;font-weight:normal;font-size:19.99979973px;font-family:ArialUnicodeMS;-inkscape-font-specification:ArialUnicodeMS;writing-mode:lr-tb;fill:#231f20;fill-opacity:1;fill-rule:nonzero;stroke:none;stroke-width:1.33333325" /><path
       id="text118"
       transform="matrix(0.75000002,0,0,-0.75000002,0,160)"
       d="m 163.42578,44.316406 v 2.291016 l 12.51172,3.607422 -12.51172,3.568359 v 2.316406 l 16.69141,-4.791015 v -2.212891 z"
       style="font-variant:normal;font-weight:normal;font-size:19.99979973px;font-family:ArialUnicodeMS;-inkscape-font-specification:ArialUnicodeMS;writing-mode:lr-tb;fill:#231f20;fill-opacity:1;fill-rule:nonzero;stroke:none;stroke-width:1.33333325" /><text
       y="-64.800499"
       x="246"
       id="text122"
       style="font-variant:normal;font-weight:normal;font-size:19.99979973px;font-family:ArialMT;-inkscape-font-specification:ArialMT;writing-mode:lr-tb;fill:#231f20;fill-opacity:1;fill-rule:nonzero;stroke:none"
       transform="scale(1,-1)"><tspan
         id="tspan120"
         y="-64.800499"
         x="246">&amp;</tspan></text>
<path
       d="m 5.72734,134.882 c 1.17422,0 2.12579,-0.952 2.12579,-2.126 0,-1.174 -0.95157,-2.126 -2.12579,-2.126 -1.17421,0 -2.12617,0.952 -2.12617,2.126 0,1.174 0.95196,2.126 2.12617,2.126"
       style="fill:#000000;fill-opacity:1;fill-rule:evenodd;stroke:none;stroke-width:0.1"
       id="path124" /><path
       d="m 5.72734,134.882 c 1.17422,0 2.12579,-0.952 2.12579,-2.126 0,-1.174 -0.95157,-2.126 -2.12579,-2.126 -1.17421,0 -2.12617,0.952 -2.12617,2.126 0,1.174 0.95196,2.126 2.12617,2.126"
       style="fill:#000000;fill-opacity:1;fill-rule:evenodd;stroke:none;stroke-width:0.1"
       id="path126" /><path
       d="m 20.9465,124.44 c 1.1742,0 2.1262,-0.952 2.1262,-2.126 0,-1.174 -0.952,-2.126 -2.1262,-2.126 -1.1742,0 -2.1262,0.952 -2.1262,2.126 0,1.174 0.952,2.126 2.1262,2.126"
       style="fill:#000000;fill-opacity:1;fill-rule:evenodd;stroke:none;stroke-width:0.1"
       id="path128" /><path
       d="m 20.9465,124.44 c 1.1742,0 2.1262,-0.952 2.1262,-2.126 0,-1.174 -0.952,-2.126 -2.1262,-2.126 -1.1742,0 -2.1262,0.952 -2.1262,2.126 0,1.174 0.952,2.126 2.1262,2.126"
       style="fill:#000000;fill-opacity:1;fill-rule:evenodd;stroke:none;stroke-width:0.1"
       id="path130" /><path
       d="m 36.1656,113.998 c 1.1742,0 2.1262,-0.952 2.1262,-2.126 0,-1.174 -0.952,-2.126 -2.1262,-2.126 -1.1742,0 -2.1258,0.952 -2.1258,2.126 0,1.174 0.9516,2.126 2.1258,2.126"
       style="fill:#000000;fill-opacity:1;fill-rule:evenodd;stroke:none;stroke-width:0.1"
       id="path132" /><path
       d="m 36.1656,113.998 c 1.1742,0 2.1262,-0.952 2.1262,-2.126 0,-1.174 -0.952,-2.126 -2.1262,-2.126 -1.1742,0 -2.1258,0.952 -2.1258,2.126 0,1.174 0.9516,2.126 2.1258,2.126"
       style="fill:#000000;fill-opacity:1;fill-rule:evenodd;stroke:none;stroke-width:0.1"
       id="path134" /><path
       d="m 36.1656,74.0402 c 1.1742,0 2.1262,-0.9519 2.1262,-2.1261 0,-1.1743 -0.952,-2.1258 -2.1262,-2.1258 -1.1742,0 -2.1258,0.9515 -2.1258,2.1258 0,1.1742 0.9516,2.1261 2.1258,2.1261"
       style="fill:#000000;fill-opacity:1;fill-rule:evenodd;stroke:none;stroke-width:0.1"
       id="path136" /><path
       d="m 51.3852,63.5977 c 1.1742,0 2.1261,-0.9516 2.1261,-2.1258 0,-1.1742 -0.9519,-2.1262 -2.1261,-2.1262 -1.1743,0 -2.1258,0.952 -2.1258,2.1262 0,1.1742 0.9515,2.1258 2.1258,2.1258"
       style="fill:#000000;fill-opacity:1;fill-rule:evenodd;stroke:none;stroke-width:0.1"
       id="path138" /><path
       d="m 5.72734,134.882 c 1.17422,0 2.12579,-0.952 2.12579,-2.126 0,-1.174 -0.95157,-2.126 -2.12579,-2.126 -1.17421,0 -2.12617,0.952 -2.12617,2.126 0,1.174 0.95196,2.126 2.12617,2.126"
       style="fill:#000000;fill-opacity:1;fill-rule:evenodd;stroke:none;stroke-width:0.1"
       id="path140" /><path
       id="path5048"
       transform="matrix(0.75000002,0,0,-0.75000002,0,160)"
       d="m 183.75195,107.59766 -4.64843,0.9375 v 2.39453 l 4.67382,-0.9375 v 14.83203 h -2.67968 v 2.21289 h 9.58007 v -2.21289 h -4.29687 v -17.22656 z"
       style="font-variant:normal;font-weight:normal;font-size:19.99979973px;font-family:ArialUnicodeMS;-inkscape-font-specification:ArialUnicodeMS;writing-mode:lr-tb;fill:#231f20;fill-opacity:1;fill-rule:nonzero;stroke:none;stroke-width:1.33333325" /><path
       id="path5057"
       transform="matrix(0.75000002,0,0,-0.75000002,0,160)"
       d="m 183.75195,174.79688 -4.64843,0.9375 v 2.39648 l 4.67382,-0.9375 v 14.83008 h -2.67968 v 2.21289 h 9.58007 v -2.21289 h -4.29687 v -17.22656 z"
       style="font-variant:normal;font-weight:normal;font-size:19.99979973px;font-family:ArialUnicodeMS;-inkscape-font-specification:ArialUnicodeMS;writing-mode:lr-tb;fill:#231f20;fill-opacity:1;fill-rule:nonzero;stroke:none;stroke-width:1.33333325" /><path
       id="path5053"
       transform="matrix(0.75000002,0,0,-0.75000002,0,160)"
       d="m 179.52148,194.23633 v -2.21289 h -16.0957 v 2.21289 z"
       style="font-variant:normal;font-weight:normal;font-size:19.99979973px;font-family:ArialUnicodeMS;-inkscape-font-specification:ArialUnicodeMS;writing-mode:lr-tb;fill:#231f20;fill-opacity:1;fill-rule:nonzero;stroke:none;stroke-width:1.33333325" /><path
       id="path5044"
       transform="matrix(0.75000002,0,0,-0.75000002,0,160)"
       d="m 179.52148,127.03711 v -2.21289 h -16.0957 v 2.21289 z"
       style="font-variant:normal;font-weight:normal;font-size:19.99979973px;font-family:ArialUnicodeMS;-inkscape-font-specification:ArialUnicodeMS;writing-mode:lr-tb;fill:#231f20;fill-opacity:1;fill-rule:nonzero;stroke:none;stroke-width:1.33333325" /><path
       id="path5040"
       transform="matrix(0.75000002,0,0,-0.75000002,0,160)"
       d="m 163.42578,111.51562 v 2.29297 l 12.51172,3.60547 -12.51172,3.56836 v 2.31836 l 16.69141,-4.79297 v -2.21289 z"
       style="font-variant:normal;font-weight:normal;font-size:19.99979973px;font-family:ArialUnicodeMS;-inkscape-font-specification:ArialUnicodeMS;writing-mode:lr-tb;fill:#231f20;fill-opacity:1;fill-rule:nonzero;stroke:none;stroke-width:1.33333325" /><path
       id="text148"
       transform="matrix(0.75000002,0,0,-0.75000002,0,160)"
       d="m 163.42578,178.7168 v 2.29101 l 12.51172,3.60742 -12.51172,3.56641 V 190.5 l 16.69141,-4.79102 v -2.21484 z"
       style="font-variant:normal;font-weight:normal;font-size:19.99979973px;font-family:ArialUnicodeMS;-inkscape-font-specification:ArialUnicodeMS;writing-mode:lr-tb;fill:#231f20;fill-opacity:1;fill-rule:nonzero;stroke:none;stroke-width:1.33333325" /></g></svg>